<svg width="342" height="93" viewBox="0 0 342 93" fill="none" xmlns="http://www.w3.org/2000/svg">
<g clip-path="url(#clip0_34_488)">
<path d="M1.17817 27.4783C8.81273 37.7117 20.5473 44.1075 32.7061 44.5339C36.1935 44.676 39.6337 44.297 42.9797 43.918C45.5717 43.6337 48.0223 43.3495 50.4729 43.3021C56.1753 43.2073 61.4064 44.1549 66.0719 46.1447C75.9686 50.4085 80.8227 57.9414 80.8698 58.0362C81.3882 58.8889 82.3307 59.4101 83.3204 59.4101C83.8388 59.4101 84.4043 59.2679 84.8284 58.9837C86.1951 58.1309 86.6193 56.3306 85.771 54.9567C85.5353 54.5777 80.0215 45.813 68.334 40.7911C62.9144 38.4697 56.8822 37.38 50.3787 37.4748C47.6453 37.5222 44.9119 37.8538 42.32 38.138C39.0682 38.5171 36.005 38.8487 32.8946 38.7539C28.3233 38.5644 23.8462 37.4748 19.5577 35.3902V24.2094C19.5577 12.46 29.0773 2.88996 40.7648 2.88996C52.4522 2.88996 61.9719 12.46 61.9719 24.2094C61.9719 24.92 62.5845 25.5359 63.2914 25.5359C63.9983 25.5359 64.611 24.92 64.611 24.2094C64.611 10.9913 53.9132 0.236877 40.7648 0.236877C27.6164 0.236877 16.9186 10.9913 16.9186 24.2094V34.0163C12.63 31.5053 8.81273 28.0469 5.79661 24.0199L5.6081 23.783C4.66556 22.5038 2.82761 22.2196 1.55518 23.1671C0.282758 24.1146 -3.60151e-06 25.9623 0.942535 27.2415L1.17817 27.4783Z" fill="black"/>
<path d="M86.0066 72.5334C80.587 60.6419 70.4547 51.7351 58.9557 48.6556C52.4522 46.9501 45.9016 47.4238 39.5395 47.8976C36.759 48.0871 33.8842 48.324 31.1509 48.324H31.0566C24.6945 48.324 18.8036 46.8079 13.4312 43.8706C10.3679 42.165 7.54029 40.0805 5.04257 37.6169C4.47704 37.0958 3.72301 36.7641 2.96898 36.8115C2.21495 36.8115 1.46092 37.1431 0.942525 37.7116C0.424129 38.2802 0.0942402 38.9908 0.141367 39.7962C0.141367 40.5542 0.471256 41.3123 1.03678 41.8334C3.91152 44.6286 7.16328 47.0448 10.6507 49.0346C16.8714 52.4931 23.7048 54.246 31.0566 54.246H31.198C34.1199 54.246 37.0889 54.0092 39.9636 53.8196C46.0901 53.3459 51.8867 52.9195 57.4477 54.4355C59.0029 54.8619 60.5109 55.3831 62.019 56.0463C61.9719 56.1411 61.9719 56.2832 61.9719 56.378V68.7432C61.9719 80.4926 52.4522 90.0627 40.7648 90.0627C29.0773 90.0627 19.5577 80.4926 19.5577 68.7432C19.5577 68.0326 18.945 67.4167 18.2381 67.4167C17.5312 67.4167 16.9185 68.0326 16.9185 68.7432C16.9185 81.9613 27.6164 92.7157 40.7648 92.7157C53.9132 92.7157 64.611 81.9613 64.611 68.7432V57.3255C71.4915 61.163 77.1939 67.4167 80.7284 75.0917C81.1997 76.134 82.2364 76.7972 83.3675 76.7972C83.7916 76.7972 84.2158 76.7025 84.5928 76.513C85.2997 76.1813 85.8181 75.6128 86.1008 74.9022C86.3836 74.002 86.3365 73.244 86.0066 72.5334Z" fill="black"/>
<path d="M110.937 46.2868C109.005 46.2868 107.261 45.813 105.706 44.9129C103.821 43.8232 102.548 42.2124 101.935 40.1278L104.386 39.4172C104.81 40.8859 105.706 42.0229 107.072 42.7809C108.203 43.4442 109.523 43.7285 110.984 43.7285C111.219 43.7285 111.408 43.7285 111.549 43.7285C111.691 43.7285 111.926 43.6811 112.162 43.6337C112.822 43.5389 113.387 43.3494 113.906 43.1126C115.414 42.4019 116.262 41.2175 116.403 39.5119C116.451 38.6118 116.215 37.8538 115.602 37.1431C114.707 36.0535 113.199 35.4849 111.172 35.3428C107.779 35.1059 105.281 34.3005 103.773 32.9266C102.595 31.8843 102.03 30.5578 102.03 28.8996C102.03 26.6729 102.878 24.92 104.622 23.5935C106.177 22.409 108.062 21.7932 110.277 21.7932C112.916 21.7932 115.084 22.7407 116.875 24.5884C117.44 25.2043 117.912 25.8675 118.336 26.5782C118.477 26.8151 118.618 27.1467 118.807 27.5731L116.403 28.4732C116.262 28.189 116.074 27.8573 115.885 27.4783C115.697 27.1467 115.367 26.7677 114.99 26.3413C113.717 25.0148 112.115 24.3041 110.277 24.3041C109.711 24.3041 109.146 24.3989 108.533 24.541C107.826 24.6831 107.214 24.92 106.648 25.2516C105.234 26.057 104.527 27.2888 104.527 28.8522C104.527 31.1263 106.79 32.4055 111.267 32.6897C114 32.8792 116.074 33.7794 117.44 35.3902C118.477 36.622 118.948 38.0433 118.854 39.6541C118.666 41.786 117.77 43.4442 116.121 44.676C114.754 45.7656 113.01 46.2868 110.937 46.2868Z" fill="black"/>
<path d="M129.929 45.3392C128.468 44.7233 127.196 43.8232 126.064 42.6862C124.933 41.5491 124.085 40.27 123.425 38.8013C122.766 37.2852 122.483 35.6744 122.483 34.0163C122.483 32.3581 122.813 30.7947 123.425 29.2786C124.038 27.81 124.933 26.5308 126.064 25.3938C127.196 24.2567 128.468 23.4039 129.929 22.788C131.437 22.1248 133.039 21.8405 134.689 21.8405C136.338 21.8405 137.893 22.1722 139.401 22.788C140.862 23.4039 142.135 24.2567 143.266 25.3938C144.397 26.5308 145.292 27.81 145.905 29.2786C146.565 30.7947 146.847 32.3581 146.847 34.0163C146.847 35.6744 146.518 37.2852 145.905 38.8013C145.292 40.27 144.444 41.5491 143.266 42.6862C142.135 43.8232 140.862 44.676 139.401 45.3392C137.893 45.9551 136.338 46.2868 134.689 46.2868C132.992 46.2868 131.437 45.9551 129.929 45.3392ZM127.855 27.1941C125.97 29.0891 125.028 31.3632 125.028 34.0163C125.028 36.6694 125.97 38.9434 127.855 40.8385C129.74 42.7335 132.002 43.6811 134.642 43.6811C137.281 43.6811 139.543 42.7335 141.428 40.8385C143.313 38.9434 144.255 36.6694 144.255 34.0163C144.255 31.3632 143.313 29.0891 141.428 27.1941C139.543 25.299 137.281 24.3515 134.642 24.3515C132.002 24.3988 129.74 25.299 127.855 27.1941Z" fill="black"/>
<path d="M153.634 43.3021H165.698V45.9078H151.042V22.2669H153.634V43.3021Z" fill="black"/>
<path d="M187.047 43.7285C188.885 43.7285 190.534 43.2547 192.089 42.2598C193.597 41.3123 194.776 40.0805 195.577 38.4697L197.933 39.5119C196.896 41.5491 195.435 43.1599 193.503 44.3917C191.524 45.6235 189.356 46.2868 187 46.2868C185.35 46.2868 183.795 45.9551 182.287 45.3393C180.826 44.7234 179.554 43.8232 178.422 42.6862C177.291 41.5491 176.443 40.27 175.783 38.8013C175.171 37.2853 174.841 35.7218 174.841 34.0637C174.841 32.4055 175.171 30.7947 175.783 29.2786C176.396 27.81 177.291 26.5308 178.422 25.3938C179.554 24.2567 180.826 23.404 182.287 22.7407C183.795 22.1248 185.35 21.7932 187 21.7932C189.356 21.7932 191.524 22.409 193.503 23.6882C195.435 24.92 196.896 26.5308 197.933 28.568L195.577 29.6103C194.776 28.0468 193.597 26.7677 192.089 25.8202C190.534 24.8726 188.838 24.3515 187.047 24.3515C184.408 24.3515 182.145 25.299 180.26 27.1941C178.375 29.0891 177.433 31.3632 177.433 34.0163C177.433 36.6694 178.375 38.9434 180.26 40.8385C182.098 42.7809 184.36 43.7285 187.047 43.7285Z" fill="black"/>
<path d="M218.904 45.8604H216.124L214.38 41.5018H204.484L202.74 45.8604H199.959L209.432 22.2669L218.904 45.8604ZM213.344 38.9434L209.432 29.1839L205.52 38.9434H213.344Z" fill="black"/>
<path d="M230.545 46.2868C228.613 46.2868 226.869 45.813 225.314 44.9129C223.429 43.8232 222.156 42.2124 221.544 40.1278L223.994 39.4172C224.418 40.8859 225.314 42.0229 226.68 42.7809C227.811 43.4442 229.131 43.7285 230.592 43.7285C230.828 43.7285 231.016 43.7285 231.157 43.7285C231.299 43.7285 231.535 43.6811 231.723 43.6337C232.383 43.5389 232.948 43.3494 233.467 43.1126C234.975 42.4019 235.823 41.2175 235.964 39.5119C236.012 38.6118 235.776 37.8538 235.163 37.1431C234.268 36.0535 232.76 35.4849 230.733 35.3428C227.34 35.1059 224.842 34.3005 223.334 32.9266C222.156 31.8843 221.591 30.5578 221.591 28.8996C221.591 26.6729 222.439 24.92 224.183 23.5935C225.738 22.409 227.623 21.7932 229.838 21.7932C232.477 21.7932 234.645 22.7407 236.436 24.5884C237.001 25.2043 237.472 25.8675 237.897 26.5782C238.038 26.8151 238.179 27.1467 238.368 27.5731L235.964 28.4732C235.823 28.189 235.635 27.8573 235.446 27.4783C235.258 27.1467 234.928 26.7677 234.551 26.3413C233.278 25.0148 231.676 24.3041 229.838 24.3041C229.272 24.3041 228.707 24.3989 228.094 24.541C227.387 24.6831 226.775 24.92 226.209 25.2516C224.795 26.057 224.088 27.2888 224.088 28.8522C224.088 31.1263 226.351 32.4055 230.828 32.6897C233.561 32.8792 235.635 33.7794 237.001 35.3902C238.038 36.622 238.509 38.0433 238.415 39.6541C238.227 41.786 237.331 43.4442 235.682 44.676C234.315 45.7656 232.571 46.2868 230.545 46.2868Z" fill="black"/>
<path d="M260.329 22.2669V24.8726H252.035V45.8604H249.443V24.8726H241.054V22.2669H260.329Z" fill="black"/>
<path d="M277.53 43.3021V45.9078H263.534V22.2669H277.53V24.8726H266.126V32.6897H275.315V35.2954H266.126V43.2547H277.53V43.3021Z" fill="black"/>
<path d="M293.365 37.9011C294.685 38.7539 295.721 39.8909 296.475 41.3122C297.229 42.7335 297.654 44.2496 297.654 45.9078H295.062C295.062 43.9653 294.402 42.3545 293.035 40.9806C291.668 39.6067 290.019 38.9434 288.087 38.9434H283.751V45.9551H281.159V22.2669H289.406C291.668 22.2669 293.648 23.0723 295.25 24.6831C296.852 26.2939 297.654 28.2363 297.654 30.5578C297.654 32.1212 297.229 33.5425 296.428 34.869C295.721 36.1482 294.685 37.1431 293.365 37.9011ZM283.798 24.8726V36.243H289.453C291.009 36.243 292.375 35.6744 293.459 34.5848C294.543 33.4478 295.109 32.1212 295.109 30.5578C295.109 28.9944 294.543 27.6678 293.459 26.5308C292.375 25.3938 291.009 24.8726 289.453 24.8726H283.798Z" fill="black"/>
<path d="M319.285 45.8604H316.504L314.761 41.5018H304.864L303.12 45.8604H300.34L309.812 22.2669L319.285 45.8604ZM313.724 38.9434L309.812 29.1839L305.901 38.9434H313.724Z" fill="black"/>
<path d="M341.859 46.3815L325.034 28.3785V45.8604H322.442V21.8405L339.267 39.8436V22.2669H341.859V46.3815Z" fill="black"/>
<path d="M107.119 56.1885C108.203 56.1885 109.146 56.5675 109.9 57.3729C110.701 58.1309 111.078 59.0784 111.078 60.1681C111.078 61.2578 110.701 62.2053 109.9 62.9633C109.146 63.7687 108.203 64.1477 107.119 64.1477H104.056V67.701H103.161V56.1885H107.119ZM107.119 63.2476C107.968 63.2476 108.675 62.9633 109.287 62.3474C109.9 61.7315 110.183 61.0209 110.183 60.1681C110.183 59.3153 109.9 58.6047 109.287 57.9888C108.675 57.3729 107.968 57.0886 107.119 57.0886H104.056V63.2476H107.119Z" fill="black"/>
<path d="M123.237 56.1885V67.701H122.341V62.3948H115.508V67.701H114.613V56.1885H115.508V61.4946H122.341V56.1885H123.237Z" fill="black"/>
<path d="M130.447 67.4641C129.74 67.1798 129.128 66.706 128.562 66.1849C127.997 65.6164 127.573 65.0005 127.29 64.2898C126.96 63.5318 126.819 62.7738 126.819 61.9684C126.819 61.163 126.96 60.405 127.29 59.647C127.573 58.9363 128.044 58.273 128.562 57.7519C129.128 57.1834 129.74 56.757 130.447 56.4727C131.201 56.1411 131.955 55.999 132.757 55.999C133.558 55.999 134.312 56.1411 135.066 56.4727C135.773 56.757 136.385 57.1834 136.951 57.7519C137.516 58.3204 137.94 58.9363 138.223 59.647C138.553 60.405 138.694 61.163 138.694 61.9684C138.694 62.7738 138.553 63.5792 138.223 64.2898C137.94 65.0005 137.516 65.6164 136.951 66.1849C136.385 66.7534 135.773 67.1798 135.066 67.4641C134.312 67.7957 133.558 67.9378 132.757 67.9378C131.955 67.9378 131.154 67.7957 130.447 67.4641ZM129.175 58.3204C128.185 59.3153 127.667 60.5471 127.667 61.921C127.667 63.2949 128.185 64.5267 129.175 65.5216C130.165 66.5165 131.39 66.9903 132.757 66.9903C134.17 66.9903 135.348 66.5165 136.338 65.5216C137.328 64.5267 137.846 63.2949 137.846 61.921C137.846 60.5471 137.328 59.3153 136.338 58.3204C135.348 57.3255 134.17 56.8517 132.757 56.8517C131.343 56.8517 130.165 57.3255 129.175 58.3204Z" fill="black"/>
<path d="M150.241 56.1885V57.0886H146.046V67.701H145.151V57.0886H140.909V56.1885H150.241Z" fill="black"/>
<path d="M155.707 67.4641C155 67.1798 154.388 66.706 153.822 66.1849C153.257 65.6164 152.833 65.0005 152.55 64.2898C152.22 63.5318 152.079 62.7738 152.079 61.9684C152.079 61.163 152.22 60.405 152.55 59.647C152.833 58.9363 153.304 58.273 153.822 57.7519C154.388 57.1834 155 56.757 155.707 56.4727C156.461 56.1411 157.215 55.999 158.017 55.999C158.818 55.999 159.572 56.1411 160.326 56.4727C161.033 56.757 161.645 57.1834 162.211 57.7519C162.776 58.3204 163.2 58.9363 163.483 59.647C163.813 60.405 163.955 61.163 163.955 61.9684C163.955 62.7738 163.813 63.5792 163.483 64.2898C163.2 65.0005 162.776 65.6164 162.211 66.1849C161.645 66.7534 161.033 67.1798 160.326 67.4641C159.572 67.7957 158.818 67.9378 158.017 67.9378C157.215 67.9378 156.461 67.7957 155.707 67.4641ZM154.435 58.3204C153.445 59.3153 152.927 60.5471 152.927 61.921C152.927 63.2949 153.445 64.5267 154.435 65.5216C155.425 66.5165 156.65 66.9903 158.017 66.9903C159.43 66.9903 160.608 66.5165 161.598 65.5216C162.588 64.5267 163.106 63.2949 163.106 61.921C163.106 60.5471 162.588 59.3153 161.598 58.3204C160.608 57.3255 159.43 56.8517 158.017 56.8517C156.65 56.8517 155.425 57.3255 154.435 58.3204Z" fill="black"/>
<path d="M179.459 62.1579C179.459 62.8212 179.318 63.5318 178.988 64.2898C178.705 65.0005 178.281 65.6638 177.716 66.1849C177.15 66.7534 176.537 67.1798 175.83 67.4641C175.076 67.7957 174.322 67.9378 173.521 67.9378C172.72 67.9378 171.966 67.7957 171.212 67.4641C170.505 67.1798 169.845 66.7534 169.327 66.1849C168.761 65.6164 168.337 65.0005 168.055 64.2898C167.725 63.5318 167.583 62.7738 167.583 61.9684C167.583 61.163 167.725 60.3576 168.055 59.647C168.337 58.9363 168.761 58.273 169.327 57.7519C169.893 57.1834 170.505 56.757 171.212 56.4727C171.966 56.1411 172.72 55.999 173.521 55.999C174.794 55.999 175.972 56.378 177.009 57.136C178.045 57.894 178.705 58.7468 179.035 59.7417H177.998C177.621 58.9363 177.056 58.3204 176.255 57.7993C175.406 57.2781 174.511 56.9939 173.521 56.9939C172.155 56.9939 170.976 57.4676 169.987 58.4625C168.997 59.4574 168.526 60.6419 168.526 62.0158C168.526 63.3897 168.997 64.5741 169.987 65.569C170.976 66.5639 172.155 67.0377 173.521 67.0377C174.652 67.0377 175.642 66.706 176.537 65.9954C177.433 65.3321 178.045 64.3846 178.375 63.1528H173.71V62.2053H179.459V62.1579Z" fill="black"/>
<path d="M188.649 63.8635C189.45 64.3846 190.063 65.0005 190.44 65.7112C190.817 66.4218 191.005 67.0851 191.005 67.7484H190.11C190.11 66.8482 189.733 66.0428 189.026 65.2848C188.272 64.5741 187.424 64.1951 186.387 64.1951H183.983V67.7484H183.088V56.2359H187.047C188.131 56.2359 189.073 56.6149 189.874 57.4203C190.675 58.1783 191.052 59.1258 191.052 60.2155C191.052 60.9735 190.864 61.6368 190.487 62.3001C190.063 62.8686 189.45 63.3897 188.649 63.8635ZM183.983 57.0886V63.2476H187.047C187.895 63.2476 188.602 62.9633 189.215 62.3474C189.827 61.7315 190.11 61.0209 190.11 60.1681C190.11 59.3153 189.827 58.6047 189.215 57.9888C188.602 57.3729 187.895 57.0886 187.047 57.0886H183.983Z" fill="black"/>
<path d="M203.494 67.701H202.551L201.42 64.9058H196.095L194.964 67.701H194.021L198.734 55.9516L203.494 67.701ZM201.043 64.053L198.734 58.3678L196.425 64.053H201.043Z" fill="black"/>
<path d="M210.752 56.1885C211.835 56.1885 212.778 56.5675 213.532 57.3729C214.333 58.1309 214.71 59.0784 214.71 60.1681C214.71 61.2578 214.333 62.2053 213.532 62.9633C212.778 63.7687 211.835 64.1477 210.752 64.1477H207.688V67.701H206.793V56.1885H210.752ZM210.752 63.2476C211.6 63.2476 212.307 62.9633 212.919 62.3474C213.532 61.7315 213.815 61.0209 213.815 60.1681C213.815 59.3153 213.532 58.6047 212.919 57.9888C212.307 57.3729 211.6 57.0886 210.752 57.0886H207.688V63.2476H210.752Z" fill="black"/>
<path d="M226.869 56.1885V67.701H225.974V62.3948H219.14V67.701H218.245V56.1885H219.14V61.4946H225.974V56.1885H226.869Z" fill="black"/>
<path d="M232.194 70.9699L234.221 65.9954L230.262 56.1885H231.205L234.645 64.811L238.132 56.1885H239.075L233.09 70.9699H232.194Z" fill="black"/>
</g>
<defs>
<clipPath id="clip0_34_488">
<rect width="342" height="93" fill="white"/>
</clipPath>
</defs>
</svg>
