<?xml version="1.0" encoding="utf-8"?>
<!-- Generator: Adobe Illustrator 26.1.0, SVG Export Plug-In . SVG Version: 6.00 Build 0)  -->
<svg version="1.1" id="Capa_1" xmlns="http://www.w3.org/2000/svg" xmlns:xlink="http://www.w3.org/1999/xlink" x="0px" y="0px"
	 viewBox="0 0 309.8 333.2" style="enable-background:new 0 0 309.8 333.2;" xml:space="preserve">
<style type="text/css">
	.st0{fill:#B399C2;}
</style>
<g>
	<path class="st0" d="M5.9,97.7c26.9,36,68.5,58.5,111.3,60c12.4,0.5,24.7-0.9,36.5-2.3c9.4-1.1,18.2-2.1,27.2-2.2
		c20.8-0.4,39.9,3.1,56.9,10.3c36.4,15.5,54.1,43.1,54.2,43.4h0c1.5,2.4,4.2,3.8,6.8,3.8c1.5,0,2.9-0.4,4.2-1.2
		c3.8-2.3,4.9-7.3,2.6-11.1c-0.8-1.3-20.3-32-61.6-49.6c-19.1-8.1-40.5-12-63.5-11.6c-9.7,0.2-19.4,1.3-28.7,2.3
		c-11.8,1.3-22.9,2.6-34.1,2.2c-17.3-0.6-34.3-5.1-50.1-12.8V87.4c0-43.3,35.2-78.5,78.5-78.5c43.3,0,78.5,35.2,78.5,78.5
		c0,1.3,1.1,2.4,2.4,2.4s2.4-1.1,2.4-2.4c0-45.9-37.4-83.3-83.3-83.3c-45.9,0-83.3,37.4-83.3,83.3v39c-16.9-9.2-32.2-22.2-44.1-38.2
		c-0.2-0.3-0.5-0.6-0.7-0.9c-2.6-3.6-7.7-4.3-11.3-1.7C3.2,88,2.5,93.1,5.1,96.7C5.4,97,5.6,97.4,5.9,97.7z"/>
	<path class="st0" d="M306.4,260.9c-19.2-41.8-55-73.2-95.7-84c-22.9-6.1-46.3-4.4-68.9-2.7c-10,0.7-20.3,1.5-30.2,1.5
		c-0.1,0-0.3,0-0.4,0c-23.2,0-44.8-5.5-64.3-16.3c-11.2-6.2-21.5-13.8-30.6-22.7c-3.2-3.1-8.3-3-11.4,0.2c-3.1,3.2-3,8.3,0.2,11.4
		c10.2,9.9,21.6,18.4,34.1,25.3c21.9,12.1,46.2,18.3,72.1,18.3c0.1,0,0.3,0,0.4,0c10.5,0,21.1-0.8,31.4-1.6
		c22.2-1.6,43.2-3.2,63.6,2.2c6.6,1.8,13.1,4.2,19.4,7.1c-0.8,0.4-1.4,1.2-1.4,2.2v44.1c0,43.3-35.2,78.5-78.5,78.5
		c-43.3,0-78.5-35.2-78.5-78.5c0-1.3-1.1-2.4-2.4-2.4c-1.3,0-2.4,1.1-2.4,2.4c0,45.9,37.4,83.3,83.3,83.3
		c45.9,0,83.3-37.4,83.3-83.3v-44.1c0-0.2,0-0.4-0.1-0.5c26.4,13.4,48.8,37,62.3,66.4c1.4,3,4.3,4.7,7.3,4.7c1.1,0,2.3-0.2,3.4-0.7
		C306.5,269.7,308.3,264.9,306.4,260.9z"/>
</g>
</svg>
