<svg width="211" height="24" viewBox="0 0 211 24" fill="none" xmlns="http://www.w3.org/2000/svg">
<path d="M191.862 0.543945V18.2205H190.441V10.0484H179.96V18.2205H178.538V0.543945H179.96V8.71603H190.441V0.543945H191.862Z" fill="white"/>
<path d="M200.035 23.2837L203.144 15.6446L197.103 0.632812H198.613L203.943 13.868L209.273 0.632812H210.783L201.545 23.3725H200.035V23.2837Z" fill="white"/>
<path d="M6.83593 0.543945C8.52364 0.543945 9.94487 1.16573 11.1884 2.32048C12.432 3.47523 12.965 4.98529 12.965 6.673C12.965 8.36071 12.3432 9.78194 11.1884 11.0255C10.0337 12.2691 8.52364 12.8021 6.83593 12.8021H2.03928V18.2205H0.618042V0.543945H6.83593ZM6.83593 11.4696C8.16833 11.4696 9.23426 11.0255 10.2114 10.0484C11.0996 9.07134 11.6326 8.0054 11.6326 6.673C11.6326 5.34059 11.1884 4.27468 10.2114 3.29759C9.32308 2.40932 8.16833 1.87635 6.83593 1.87635H2.03928V11.3808H6.83593V11.4696Z" fill="white"/>
<path d="M31.7075 0.543945V18.2205H30.2862V10.0484H19.8047V18.2205H18.3834V0.543945H19.8047V8.71603H30.2862V0.543945H31.7075Z" fill="white"/>
<path d="M42.8109 17.954C41.7449 17.5098 40.7678 16.7992 39.8796 15.9998C38.9913 15.1115 38.3695 14.2232 37.9254 13.0685C37.4812 11.9137 37.2148 10.759 37.2148 9.5154C37.2148 8.27183 37.4812 7.11707 37.9254 5.96232C38.3695 4.8964 39.0801 3.91929 39.8796 3.03102C40.7678 2.14275 41.6561 1.52098 42.8109 1.07684C43.9656 0.632708 45.1204 0.366211 46.3639 0.366211C47.6075 0.366211 48.7623 0.632708 49.917 1.07684C50.9829 1.52098 51.96 2.23158 52.8483 3.03102C53.7366 3.91929 54.3584 4.8964 54.8025 5.96232C55.2466 7.11707 55.5131 8.27183 55.5131 9.5154C55.5131 10.759 55.2466 11.9137 54.8025 13.0685C54.3584 14.1344 53.6477 15.1115 52.8483 15.9998C51.96 16.888 51.0718 17.5098 49.917 17.954C48.7623 18.3981 47.6075 18.6646 46.3639 18.6646C45.2092 18.6646 43.9656 18.3981 42.8109 17.954ZM40.8567 3.91929C39.3466 5.42935 38.5472 7.29473 38.5472 9.5154C38.5472 11.7361 39.3466 13.5126 40.8567 15.1115C42.3667 16.6215 44.2321 17.421 46.4528 17.421C48.5846 17.421 50.45 16.6215 51.96 15.1115C53.4701 13.6014 54.2695 11.7361 54.2695 9.5154C54.2695 7.29473 53.4701 5.51817 51.96 3.91929C50.45 2.40923 48.5846 1.60981 46.4528 1.60981C44.2321 1.60981 42.3667 2.3204 40.8567 3.91929Z" fill="white"/>
<path d="M73.4562 0.543945V1.96518H66.9718V18.3093H65.5506V1.96518H58.9774V0.543945H73.4562Z" fill="white"/>
<path d="M81.8947 17.954C80.8288 17.5098 79.8517 16.7992 78.9634 15.9998C78.0751 15.1115 77.4533 14.2232 77.0092 13.0685C76.5651 11.9137 76.2986 10.759 76.2986 9.5154C76.2986 8.27183 76.5651 7.11707 77.0092 5.96232C77.4533 4.8964 78.1639 3.91929 78.9634 3.03102C79.8517 2.14275 80.7399 1.52098 81.8947 1.07684C83.0494 0.632708 84.2042 0.366211 85.4478 0.366211C86.6913 0.366211 87.8461 0.632708 89.0008 1.07684C90.0668 1.52098 91.0439 2.23158 91.9321 3.03102C92.8204 3.91929 93.4422 4.8964 93.8863 5.96232C94.3305 7.11707 94.5969 8.27183 94.5969 9.5154C94.5969 10.759 94.3305 11.9137 93.8863 13.0685C93.4422 14.1344 92.7316 15.1115 91.9321 15.9998C91.0439 16.888 90.1556 17.5098 89.0008 17.954C87.8461 18.3981 86.6913 18.6646 85.4478 18.6646C84.2042 18.6646 83.0494 18.3981 81.8947 17.954ZM79.9405 3.91929C78.4304 5.42935 77.631 7.29473 77.631 9.5154C77.631 11.7361 78.4304 13.5126 79.9405 15.1115C81.4506 16.6215 83.3159 17.421 85.5366 17.421C87.6684 17.421 89.5338 16.6215 91.0439 15.1115C92.5539 13.6014 93.3534 11.7361 93.3534 9.5154C93.3534 7.29473 92.5539 5.51817 91.0439 3.91929C89.5338 2.40923 87.6684 1.60981 85.5366 1.60981C83.3159 1.60981 81.4506 2.3204 79.9405 3.91929Z" fill="white"/>
<path d="M118.58 9.78187C118.58 10.8478 118.314 11.9137 117.87 13.0685C117.425 14.1344 116.715 15.1115 115.915 15.9998C115.027 16.888 114.05 17.5098 112.984 17.954C111.829 18.3981 110.675 18.6646 109.431 18.6646C108.187 18.6646 107.033 18.3981 105.878 17.954C104.812 17.5098 103.835 16.7992 102.947 15.9998C102.058 15.1115 101.437 14.1344 100.992 13.0685C100.548 11.9137 100.282 10.759 100.282 9.5154C100.282 8.27183 100.548 7.02825 100.992 5.96232C101.437 4.8964 102.147 3.91929 102.947 3.03102C103.835 2.14275 104.812 1.52098 105.878 1.07684C107.033 0.632708 108.187 0.366211 109.431 0.366211C111.385 0.366211 113.162 0.899194 114.849 2.05394C116.448 3.20869 117.514 4.5411 118.047 6.05116H116.448C115.915 4.80758 114.938 3.83046 113.695 3.03102C112.451 2.23158 111.03 1.78745 109.52 1.78745C107.388 1.78745 105.523 2.5869 104.013 4.09695C102.503 5.60701 101.703 7.47239 101.703 9.60423C101.703 11.7361 102.503 13.6014 104.013 15.1115C105.523 16.6215 107.388 17.421 109.52 17.421C111.296 17.421 112.806 16.888 114.228 15.8221C115.56 14.7562 116.537 13.335 117.07 11.3808H109.698V9.95954H118.58V9.78187Z" fill="white"/>
<path d="M132.704 12.358C133.947 13.1574 134.924 14.1345 135.457 15.2004C136.079 16.2663 136.346 17.3323 136.346 18.3094H134.924C134.924 16.977 134.391 15.6445 133.237 14.5786C132.082 13.4239 130.749 12.8909 129.151 12.8909H125.42V18.3094H123.999V0.632812H130.128C131.815 0.632812 133.237 1.2546 134.48 2.40935C135.724 3.5641 136.257 5.07415 136.257 6.76187C136.257 7.91662 135.99 8.98254 135.368 9.95964C134.924 10.8479 134.036 11.6473 132.704 12.358ZM125.509 1.96522V11.4697H130.217C131.549 11.4697 132.615 11.0256 133.592 10.0485C134.48 9.07138 135.013 8.00544 135.013 6.67303C135.013 5.34063 134.569 4.27472 133.592 3.29762C132.704 2.40935 131.549 1.87638 130.217 1.87638H125.509V1.96522Z" fill="white"/>
<path d="M155.71 18.3093H154.2L152.512 14.0456H144.34L142.652 18.3093H141.142L148.426 0.277466L155.71 18.3093ZM151.89 12.6244L148.337 3.83054L144.784 12.6244H151.89Z" fill="white"/>
<path d="M166.902 0.543945C168.59 0.543945 170.011 1.16573 171.255 2.32048C172.498 3.47523 173.031 4.98529 173.031 6.673C173.031 8.36071 172.409 9.78194 171.255 11.0255C170.1 12.2691 168.59 12.8021 166.902 12.8021H162.105V18.2205H160.684V0.543945H166.902ZM166.902 11.4696C168.234 11.4696 169.3 11.0255 170.278 10.0484C171.166 9.07134 171.699 8.0054 171.699 6.673C171.699 5.34059 171.255 4.27468 170.278 3.29759C169.389 2.40932 168.234 1.87635 166.902 1.87635H162.105V11.3808H166.902V11.4696Z" fill="white"/>
</svg>
