<svg width="1920" height="503" viewBox="0 0 1920 503" fill="none" xmlns="http://www.w3.org/2000/svg">
<path d="M1817.6 257.3C1773.9 227.6 1727.2 201.4 1678.7 179.4C1618.1 151.8 1554.7 130.7 1490.1 116.6C1424.1 102.2 1354.5 95.4 1283.2 96.4C1216.2 97.3 1147.2 105.1 1078.2 119.6C1017.4 132.3 958.2 150.7 901 168.4C828.8 190.7 760.6 211.8 689.7 222.6C571.2 240.7 444.9 229.6 324.4 190.5C206.4 152.2 96 88 5.1 4.8C3.4 3.2 1.7 1.6 0 0V49.5V134.4V502.2H1920V368.6V355V338.8C1901.6 321.3 1867 290.8 1817.6 257.3Z" fill="#B399C2"/>
</svg>
