<svg width="176" height="187" viewBox="0 0 176 187" fill="none" xmlns="http://www.w3.org/2000/svg">
<path d="M2.87057 53.8291C18.3265 74.5258 42.2209 87.4057 66.826 88.294C74.0209 88.5605 81.0383 87.761 87.7891 86.9616C93.2076 86.3398 98.2707 85.8068 103.423 85.718C115.325 85.5403 126.34 87.4945 136.111 91.6694C157.074 100.641 167.2 116.452 167.289 116.63C168.177 118.051 169.688 118.85 171.198 118.85C171.997 118.85 172.885 118.584 173.596 118.14C175.728 116.807 176.438 113.965 175.106 111.744C174.662 111.034 163.47 93.3571 139.664 83.2308C128.827 78.523 116.569 76.3023 103.245 76.5688C97.6489 76.6576 92.1416 77.2794 86.7232 77.9012C79.9723 78.7007 73.5768 79.4113 67.0924 79.1448C57.1438 78.7895 47.3729 76.2135 38.3125 71.7722V47.8777C38.3125 23.0062 58.5651 2.75364 83.4366 2.75364C108.308 2.75364 128.561 23.0062 128.561 47.8777C128.561 48.6772 129.182 49.299 129.982 49.299C130.781 49.299 131.403 48.6772 131.403 47.8777C131.403 21.4961 109.907 0 83.5254 0C57.1438 0 35.6477 21.4961 35.6477 47.8777V70.3509C25.8767 65.0213 17.1717 57.5599 10.2432 48.4107C10.0656 48.233 9.97672 48.0554 9.88789 47.8777C8.37783 45.8347 5.44655 45.3906 3.40353 46.9006C1.36051 48.4107 0.916375 51.342 2.42643 53.385C2.51526 53.4738 2.69291 53.6515 2.87057 53.8291Z" fill="white"/>
<path d="M175.55 147.63C164.447 123.558 143.928 105.526 120.566 99.3974C107.42 95.9331 93.9182 96.9102 80.9494 97.8873C75.1757 98.3315 69.3131 98.7756 63.5394 98.7756C63.4505 98.7756 63.3617 98.7756 63.3617 98.7756C50.0377 98.7756 37.6019 95.6666 26.4097 89.4488C20.0142 85.8957 14.0628 81.5432 8.82197 76.3912C6.95661 74.6147 4.02532 74.6147 2.24878 76.48C0.472246 78.3454 0.472238 81.2767 2.3376 83.0532C8.20018 88.7382 14.7734 93.6236 21.8795 97.532C34.493 104.461 48.4388 108.014 63.3617 108.014C63.4506 108.014 63.5394 108.014 63.6282 108.014C69.6684 108.014 75.7975 107.569 81.6601 107.125C94.4511 106.148 106.532 105.26 118.168 108.369C121.987 109.346 125.718 110.767 129.36 112.455C128.916 112.633 128.561 113.166 128.561 113.699V139.014C128.561 163.886 108.308 184.138 83.4366 184.138C58.5651 184.138 38.3125 163.886 38.3125 139.014C38.3125 138.215 37.6907 137.593 36.8913 137.593C36.0919 137.593 35.4701 138.215 35.4701 139.014C35.4701 165.396 56.9662 186.892 83.3478 186.892C109.729 186.892 131.225 165.396 131.225 139.014V113.699C131.225 113.61 131.225 113.521 131.225 113.432C146.415 121.16 159.295 134.751 167.023 151.628C167.822 153.315 169.51 154.292 171.198 154.292C171.819 154.292 172.53 154.115 173.152 153.848C175.639 152.782 176.616 150.029 175.55 147.63Z" fill="white"/>
</svg>
