<svg width="415" height="44" viewBox="0 0 415 44" fill="none" xmlns="http://www.w3.org/2000/svg">
<path d="M15.5447 42.9132C12.1693 42.9132 9.14918 42.1137 6.48437 40.5149C3.19777 38.6495 1.06592 35.8958 0 32.2539L4.26369 31.0104C4.97431 33.4975 6.57319 35.4517 8.88269 36.7841C10.8369 37.9389 13.0576 38.4718 15.6335 38.4718C15.9888 38.4718 16.3442 38.4718 16.6106 38.4718C16.8771 38.4718 17.2324 38.383 17.5877 38.2942C18.7425 38.1165 19.7196 37.85 20.6079 37.4059C23.2727 36.1623 24.6939 34.1193 24.8715 31.188C24.9604 29.678 24.5162 28.3456 23.5391 27.102C21.9403 25.2366 19.4531 24.2595 15.9 23.993C10.0374 23.6377 5.77375 22.2165 3.10894 19.907C1.15475 18.1305 0.0888269 15.821 0.0888269 12.9785C0.0888269 9.15893 1.59888 6.13882 4.619 3.91815C7.28381 1.87513 10.5704 0.809204 14.39 0.809204C18.9201 0.809204 22.7397 2.40808 25.7598 5.60585C26.7369 6.67178 27.5364 7.7377 28.247 8.98128C28.5134 9.33659 28.7799 9.95838 29.1352 10.669L25.0492 12.1791C24.7827 11.6461 24.5162 11.1131 24.1609 10.4913C23.8056 9.86955 23.2727 9.24776 22.562 8.53715C20.3414 6.22764 17.6766 5.0729 14.39 5.0729C13.4129 5.0729 12.4358 5.16172 11.3698 5.4282C10.1263 5.69468 9.06035 6.13883 8.17208 6.67179C5.68492 8.09302 4.53017 10.136 4.53017 12.8897C4.53017 16.7981 8.43856 19.0187 16.1665 19.4629C20.8743 19.8182 24.4274 21.3282 26.8257 24.0819C28.6911 26.2137 29.4905 28.612 29.2241 31.3657C28.9576 35.0076 27.3587 37.9389 24.5162 39.9819C22.1179 42.0249 19.0978 42.9132 15.5447 42.9132Z" fill="white"/>
<path d="M48.3219 41.3142C45.8347 40.2483 43.614 38.7382 41.6598 36.784C39.7056 34.8298 38.1956 32.6092 37.1297 30.122C35.9749 27.546 35.442 24.7924 35.442 21.9499C35.442 19.1075 35.9749 16.3538 37.1297 13.7779C38.1956 11.2907 39.7056 8.9812 41.6598 7.11584C43.614 5.16164 45.8347 3.65158 48.3219 2.58566C50.8978 1.43091 53.6515 0.897949 56.4939 0.897949C59.3364 0.897949 62.09 1.43091 64.666 2.58566C67.1532 3.65158 69.3738 5.16164 71.328 7.11584C73.2822 9.07003 74.7923 11.2907 75.8582 13.7779C77.013 16.3538 77.5459 19.1075 77.5459 21.9499C77.5459 24.7924 77.013 27.546 75.8582 30.122C74.7923 32.6092 73.2822 34.8298 71.328 36.784C69.3738 38.7382 67.1532 40.2483 64.666 41.3142C62.09 42.3801 59.3364 42.9131 56.4939 42.9131C53.6515 42.9131 50.8978 42.3801 48.3219 41.3142ZM44.7688 10.1359C41.4822 13.4225 39.8833 17.3309 39.8833 21.8611C39.8833 26.4801 41.4822 30.3885 44.7688 33.5863C47.9666 36.784 51.9638 38.4717 56.4939 38.4717C61.1129 38.4717 65.0213 36.8728 68.2191 33.5863C71.5057 30.2997 73.1046 26.3913 73.1046 21.8611C73.1046 17.2421 71.5057 13.3337 68.2191 10.1359C65.0213 6.93818 61.1129 5.25046 56.4939 5.25046C51.8749 5.25046 47.9666 6.93818 44.7688 10.1359Z" fill="white"/>
<path d="M89.1823 37.7612H109.968V42.2026H84.7409V1.69751H89.1823V37.7612Z" fill="white"/>
<path d="M146.92 38.4717C150.029 38.4717 152.96 37.6723 155.625 35.9846C158.201 34.3857 160.244 32.165 161.665 29.5002L165.751 31.2767C163.975 34.741 161.399 37.5835 158.112 39.6265C154.737 41.7583 151.006 42.8242 146.92 42.8242C144.077 42.8242 141.324 42.2913 138.748 41.2254C136.261 40.1595 133.951 38.6494 132.086 36.6952C130.131 34.741 128.621 32.5203 127.555 30.0332C126.49 27.4572 125.957 24.7036 125.957 21.8611C125.957 19.0187 126.49 16.265 127.555 13.689C128.621 11.2019 130.131 8.9812 132.086 7.027C134.04 5.07281 136.261 3.56275 138.748 2.49682C141.324 1.4309 144.077 0.897949 146.92 0.897949C151.006 0.897949 154.737 1.96386 158.112 4.09571C161.399 6.22756 163.975 8.9812 165.751 12.4455L161.665 14.222C160.244 11.4684 158.29 9.33651 155.625 7.73762C152.96 6.04991 150.029 5.25046 146.92 5.25046C142.301 5.25046 138.392 6.84935 135.195 10.1359C131.997 13.4225 130.309 17.3309 130.309 21.8611C130.309 26.4801 131.908 30.3885 135.195 33.5863C138.392 36.8728 142.301 38.4717 146.92 38.4717Z" fill="white"/>
<path d="M201.904 42.2026H197.107L194.087 34.7411H176.943L173.923 42.2026H169.126L185.471 1.69751L201.904 42.2026ZM192.31 30.2998L185.559 13.6003L178.809 30.2998H192.31Z" fill="white"/>
<path d="M221.978 42.9132C218.603 42.9132 215.583 42.1137 212.918 40.5149C209.632 38.6495 207.5 35.8958 206.434 32.2539L210.697 31.0104C211.408 33.4975 213.007 35.4517 215.316 36.7841C217.271 37.9389 219.491 38.4718 222.067 38.4718C222.423 38.4718 222.778 38.4718 223.044 38.4718C223.311 38.4718 223.666 38.383 224.022 38.2942C225.176 38.1165 226.153 37.85 227.042 37.4059C229.706 36.1623 231.128 34.1193 231.305 31.188C231.394 29.678 230.95 28.3456 229.973 27.102C228.374 25.2366 225.887 24.2595 222.334 23.993C216.471 23.6377 212.208 22.2165 209.543 19.907C207.589 18.1305 206.523 15.821 206.523 12.9785C206.523 9.15893 208.033 6.13882 211.053 3.91815C213.718 1.87513 217.004 0.809204 220.824 0.809204C225.354 0.809204 229.173 2.40808 232.194 5.60585C233.171 6.67178 233.97 7.7377 234.681 8.98128C234.947 9.33659 235.214 9.95838 235.569 10.669L231.483 12.1791C231.216 11.6461 230.95 11.1131 230.595 10.4913C230.239 9.86955 229.706 9.24776 228.996 8.53715C226.775 6.22764 224.11 5.0729 220.824 5.0729C219.847 5.0729 218.87 5.16172 217.804 5.4282C216.56 5.69468 215.494 6.13883 214.606 6.67179C212.119 8.09302 210.964 10.136 210.964 12.8897C210.964 16.7981 214.872 19.0187 222.6 19.4629C227.308 19.8182 230.861 21.3282 233.26 24.0819C235.125 26.2137 235.924 28.612 235.658 31.3657C235.391 35.0076 233.792 37.9389 230.95 39.9819C228.552 42.0249 225.532 42.9132 221.978 42.9132Z" fill="white"/>
<path d="M273.409 1.69751V6.13886H259.019V42.2026H254.578V6.13886H240.01V1.69751H273.409Z" fill="white"/>
<path d="M303.166 37.7612V42.2026H279.005V1.69751H303.166V6.13886H283.447V19.5517H299.347V23.9931H283.447V37.6724H303.166V37.7612Z" fill="white"/>
<path d="M330.525 28.4344C332.746 29.9445 334.611 31.8987 335.855 34.297C337.187 36.7842 337.898 39.3601 337.898 42.2026H333.456C333.456 38.916 332.302 36.0735 329.992 33.764C327.594 31.3657 324.84 30.211 321.465 30.211H314.003V42.2914H309.562V1.69751H323.774C327.683 1.69751 331.058 3.11874 333.9 5.87237C336.654 8.62601 338.075 12.0014 338.075 15.9098C338.075 18.5746 337.365 21.0618 335.944 23.2824C334.522 25.5031 332.746 27.2797 330.525 28.4344ZM313.914 6.13886V25.6808H323.685C326.439 25.6808 328.749 24.7037 330.614 22.8383C332.479 20.8841 333.456 18.5746 333.456 15.9098C333.456 13.245 332.479 10.9355 330.614 8.98132C328.749 7.02712 326.439 6.13886 323.685 6.13886H313.914Z" fill="white"/>
<path d="M375.294 42.2026H370.497L367.477 34.7411H350.334L347.313 42.2026H342.517L358.861 1.69751L375.294 42.2026ZM365.612 30.2998L358.861 13.6003L352.11 30.2998H365.612Z" fill="white"/>
<path d="M414.2 43.0907L385.154 12.179V42.2025H380.712V0.897949L409.759 31.8097V1.69739H414.2V43.0907Z" fill="white"/>
</svg>
